<svg xmlns="http://www.w3.org/2000/svg" width="1200" height="630" viewBox="0 0 1200 630">
  <defs>
    <linearGradient id="bg" x1="0%" y1="0%" x2="100%" y2="100%">
      <stop offset="0%" stop-color="#020617"/>
      <stop offset="50%" stop-color="#0f172a"/>
      <stop offset="100%" stop-color="#111827"/>
    </linearGradient>
    <linearGradient id="line" x1="0%" y1="0%" x2="100%" y2="0%">
      <stop offset="0%" stop-color="#22d3ee"/>
      <stop offset="100%" stop-color="#8b5cf6"/>
    </linearGradient>
    <filter id="blur">
      <feGaussianBlur stdDeviation="40"/>
    </filter>
  </defs>
  <rect width="1200" height="630" fill="url(#bg)"/>
  <circle cx="210" cy="120" r="110" fill="#22d3ee" opacity="0.18" filter="url(#blur)"/>
  <circle cx="980" cy="520" r="140" fill="#8b5cf6" opacity="0.18" filter="url(#blur)"/>
  <g opacity="0.22">
    <path d="M0 126H1200" stroke="#22d3ee" stroke-width="1"/>
    <path d="M0 252H1200" stroke="#22d3ee" stroke-width="1"/>
    <path d="M0 378H1200" stroke="#22d3ee" stroke-width="1"/>
    <path d="M0 504H1200" stroke="#22d3ee" stroke-width="1"/>
    <path d="M150 0V630" stroke="#22d3ee" stroke-width="1"/>
    <path d="M300 0V630" stroke="#22d3ee" stroke-width="1"/>
    <path d="M450 0V630" stroke="#22d3ee" stroke-width="1"/>
    <path d="M600 0V630" stroke="#22d3ee" stroke-width="1"/>
    <path d="M750 0V630" stroke="#22d3ee" stroke-width="1"/>
    <path d="M900 0V630" stroke="#22d3ee" stroke-width="1"/>
    <path d="M1050 0V630" stroke="#22d3ee" stroke-width="1"/>
  </g>
  <rect x="74" y="74" width="1052" height="482" rx="34" fill="rgba(15,23,42,0.64)" stroke="rgba(255,255,255,0.08)"/>
  <text x="120" y="188" fill="#22d3ee" font-family="'JetBrains Mono', monospace" font-size="28" letter-spacing="8">PORTFOLIO / HOMEPAGE</text>
  <text x="120" y="280" fill="#f8fafc" font-family="'Segoe UI', 'PingFang SC', sans-serif" font-size="76" font-weight="700">chenmo-24</text>
  <text x="120" y="346" fill="#cbd5e1" font-family="'Segoe UI', 'PingFang SC', sans-serif" font-size="34">Personal portfolio with interactive modules, algorithm progress, and bilingual UI.</text>
  <rect x="120" y="402" width="172" height="48" rx="24" fill="rgba(34,211,238,0.12)" stroke="rgba(34,211,238,0.35)"/>
  <text x="152" y="434" fill="#67e8f9" font-family="'Segoe UI', sans-serif" font-size="22">React</text>
  <rect x="312" y="402" width="222" height="48" rx="24" fill="rgba(34,211,238,0.12)" stroke="rgba(34,211,238,0.35)"/>
  <text x="345" y="434" fill="#67e8f9" font-family="'Segoe UI', sans-serif" font-size="22">Tailwind CSS</text>
  <rect x="554" y="402" width="218" height="48" rx="24" fill="rgba(139,92,246,0.12)" stroke="rgba(139,92,246,0.35)"/>
  <text x="587" y="434" fill="#c4b5fd" font-family="'Segoe UI', sans-serif" font-size="22">GitHub Pages</text>
  <g transform="translate(796 146)">
    <rect width="260" height="250" rx="24" fill="#020617" stroke="rgba(255,255,255,0.08)"/>
    <circle cx="28" cy="28" r="6" fill="#fb7185"/>
    <circle cx="50" cy="28" r="6" fill="#fbbf24"/>
    <circle cx="72" cy="28" r="6" fill="#34d399"/>
    <text x="28" y="70" fill="#67e8f9" font-family="'JetBrains Mono', monospace" font-size="20">$ whoami</text>
    <text x="28" y="108" fill="#e2e8f0" font-family="'JetBrains Mono', monospace" font-size="20">chenmo-24</text>
    <text x="28" y="152" fill="#67e8f9" font-family="'JetBrains Mono', monospace" font-size="20">$ cat profile.json</text>
    <text x="28" y="190" fill="#a7f3d0" font-family="'JetBrains Mono', monospace" font-size="18">"focus": ["Web", "Algorithm"]</text>
    <text x="28" y="220" fill="#a7f3d0" font-family="'JetBrains Mono', monospace" font-size="18">"theme": "dark by default"</text>
  </g>
  <path d="M120 510H1080" stroke="url(#line)" stroke-width="2" opacity="0.45"/>
</svg>
